<svg xmlns="http://www.w3.org/2000/svg" style="display: none;">
  
    <symbol id="icon-logo-black" viewBox="0 0 512 512">
      <path d="m429 48l-37 43-188 0c-182 0-188 1-196 9-8 8-8 13-8 200 0 187 0 193 8 201 8 8 14 8 201 8 187 0 193 0 201-8 8-8 8-14 8-141l0-133 94-94-5-18c-18-61-35-112-38-111-1 0-19 19-40 44z m-108 124c-32 37-76 87-97 110-20 24-38 43-40 43-1 0-20-25-41-55-21-30-45-65-53-76l-14-21-28 57c-15 32-27 59-27 62 0 5 160 159 163 158 5-2 53-47 138-130l82-80 1 111c1 128 0 136-15 142-17 7-363 3-370-4-4-4-6-43-7-177 0-95 0-179 2-187 1-8 5-15 11-17 5-2 87-4 182-4l173 0z"/>
    </symbol>
  
    <symbol id="icon-ic-add-black-36px" viewBox="0 0 512 512">
      <path d="m405 277l-128 0 0 128-42 0 0-128-128 0 0-42 128 0 0-128 42 0 0 128 128 0z"/>
    </symbol>
  
    <symbol id="icon-search" viewBox="0 0 512 512">
      <path d="m347 238c0-36-12-66-37-91-25-25-55-37-91-37-35 0-65 12-90 37-25 25-38 55-38 91 0 35 13 65 38 90 25 25 55 38 90 38 36 0 66-13 91-38 25-25 37-55 37-90z m147 237c0 10-4 19-11 26-7 7-16 11-26 11-10 0-19-4-26-11l-98-98c-34 24-72 36-114 36-27 0-53-5-78-16-25-11-46-25-64-43-18-18-32-39-43-64-10-25-16-51-16-78 0-28 6-54 16-78 11-25 25-47 43-65 18-18 39-32 64-43 25-10 51-15 78-15 28 0 54 5 79 15 24 11 46 25 64 43 18 18 32 40 43 65 10 24 16 50 16 78 0 42-12 80-36 114l98 98c7 7 11 15 11 25z"/>
    </symbol>
  
</svg>
